<svg id="Layer_1" data-name="Layer 1" xmlns="http://www.w3.org/2000/svg" width="1736.52" height="503.67" viewBox="0 0 1736.52 503.67"><defs><style>.cls-1{fill:#fff;}.cls-2{font-size:24px;}.cls-2,.cls-7{font-family:ArialMT, Arial;}.cls-3{letter-spacing:-0.06em;}.cls-4{fill:none;stroke:#000;stroke-miterlimit:10;stroke-width:2px;}.cls-5{letter-spacing:-0.02em;}.cls-6{letter-spacing:-0.04em;}.cls-7{font-size:34px;}</style></defs><title>Figure1_Blogpost_031620</title><rect class="cls-1" x="55.82" y="80.35" width="253" height="89" rx="11" ry="11"/><path d="M322.82,98.35a10,10,0,0,1,10,10v67a10,10,0,0,1-10,10h-231a10,10,0,0,1-10-10v-67a10,10,0,0,1,10-10h231m0-2h-231a12,12,0,0,0-12,12v67a12,12,0,0,0,12,12h231a12,12,0,0,0,12-12v-67a12,12,0,0,0-12-12Z" transform="translate(-25 -17)"/><text class="cls-2" transform="translate(102.27 116.85)">Extract sample<tspan x="-25.35" y="28.8">RN</tspan><tspan class="cls-3" x="9.32" y="28.8">A</tspan><tspan x="24" y="28.8" xml:space="preserve"> and HSC RN</tspan><tspan class="cls-3" x="169.38" y="28.8">A</tspan></text><line class="cls-4" x1="309.82" y1="124.85" x2="375.46" y2="124.85"/><polygon points="372.55 134.82 389.82 124.85 372.55 114.88 372.55 134.82"/><rect class="cls-1" x="390.82" y="80.35" width="253" height="89" rx="11" ry="11"/><path d="M657.82,98.35a10,10,0,0,1,10,10v67a10,10,0,0,1-10,10h-231a10,10,0,0,1-10-10v-67a10,10,0,0,1,10-10h231m0-2h-231a12,12,0,0,0-12,12v67a12,12,0,0,0,12,12h231a12,12,0,0,0,12-12v-67a12,12,0,0,0-12-12Z" transform="translate(-25 -17)"/><text class="cls-2" transform="translate(422.16 116.85)">Prepare r<tspan class="cls-5" x="100.04" y="0">R</tspan><tspan class="cls-3" x="116.94" y="0">T</tspan><tspan x="130.28" y="0">-PCR</tspan><tspan x="5.54" y="28.8">plate (5 u</tspan><tspan class="cls-6" x="105.61" y="28.8">L</tspan><tspan x="118.07" y="28.8" xml:space="preserve"> RNA)</tspan></text><line class="cls-4" x1="644.82" y1="124.85" x2="710.46" y2="124.85"/><polygon points="707.55 134.82 724.82 124.85 707.55 114.88 707.55 134.82"/><rect class="cls-1" x="725.82" y="80.35" width="253" height="89" rx="11" ry="11"/><path d="M992.82,98.35a10,10,0,0,1,10,10v67a10,10,0,0,1-10,10h-231a10,10,0,0,1-10-10v-67a10,10,0,0,1,10-10h231m0-2h-231a12,12,0,0,0-12,12v67a12,12,0,0,0,12,12h231a12,12,0,0,0,12-12v-67a12,12,0,0,0-12-12Z" transform="translate(-25 -17)"/><text class="cls-2" transform="translate(756.24 116.85)">Run assay on<tspan class="cls-3" x="146.75" y="0"> </tspan><tspan x="152.1" y="0">ABI</tspan><tspan x="27.36" y="28.8">7500Fast Dx</tspan></text><line class="cls-4" x1="979.82" y1="124.85" x2="1045.46" y2="124.85"/><polygon points="1042.55 134.82 1059.82 124.85 1042.55 114.88 1042.55 134.82"/><rect class="cls-1" x="1060.82" y="80.35" width="253" height="89" rx="11" ry="11"/><path d="M1327.82,98.35a10,10,0,0,1,10,10v67a10,10,0,0,1-10,10h-231a10,10,0,0,1-10-10v-67a10,10,0,0,1,10-10h231m0-2h-231a12,12,0,0,0-12,12v67a12,12,0,0,0,12,12h231a12,12,0,0,0,12-12v-67a12,12,0,0,0-12-12Z" transform="translate(-25 -17)"/><text class="cls-2" transform="translate(1143.94 116.85)">Analyze<tspan x="17.34" y="28.8">Data</tspan></text><line class="cls-4" x1="1314.82" y1="124.85" x2="1380.46" y2="124.85"/><polygon points="1377.55 134.82 1394.82 124.85 1377.55 114.88 1377.55 134.82"/><rect class="cls-1" x="1395.82" y="80.35" width="253" height="89" rx="11" ry="11"/><path d="M1662.82,98.35a10,10,0,0,1,10,10v67a10,10,0,0,1-10,10h-231a10,10,0,0,1-10-10v-67a10,10,0,0,1,10-10h231m0-2h-231a12,12,0,0,0-12,12v67a12,12,0,0,0,12,12h231a12,12,0,0,0,12-12v-67a12,12,0,0,0-12-12Z" transform="translate(-25 -17)"/><text class="cls-2" transform="translate(1485.61 116.85)">Report<tspan x="-4" y="28.8">Results</tspan></text><rect class="cls-1" x="55.82" y="286.55" width="253" height="89" rx="11" ry="11"/><path d="M322.82,304.55a10,10,0,0,1,10,10v67a10,10,0,0,1-10,10h-231a10,10,0,0,1-10-10v-67a10,10,0,0,1,10-10h231m0-2h-231a12,12,0,0,0-12,12v67a12,12,0,0,0,12,12h231a12,12,0,0,0,12-12v-67a12,12,0,0,0-12-12Z" transform="translate(-25 -17)"/><text class="cls-2" transform="translate(102.27 323.05)">Extract sample<tspan x="-25.35" y="28.8">RN</tspan><tspan class="cls-3" x="9.32" y="28.8">A</tspan><tspan x="24" y="28.8" xml:space="preserve"> and HSC RN</tspan><tspan class="cls-3" x="169.38" y="28.8">A</tspan></text><line class="cls-4" x1="309.82" y1="331.05" x2="375.46" y2="331.05"/><polygon points="372.55 341.02 389.82 331.05 372.55 321.08 372.55 341.02"/><rect class="cls-1" x="390.82" y="286.55" width="253" height="89" rx="11" ry="11"/><path d="M657.82,304.55a10,10,0,0,1,10,10v67a10,10,0,0,1-10,10h-231a10,10,0,0,1-10-10v-67a10,10,0,0,1,10-10h231m0-2h-231a12,12,0,0,0-12,12v67a12,12,0,0,0,12,12h231a12,12,0,0,0,12-12v-67a12,12,0,0,0-12-12Z" transform="translate(-25 -17)"/><text class="cls-2" transform="translate(425.92 323.05)">Prepare 384-well<tspan x="30.02" y="28.8">PCR plates</tspan></text><line class="cls-4" x1="644.82" y1="331.05" x2="710.46" y2="331.05"/><polygon points="707.55 341.02 724.82 331.05 707.55 321.08 707.55 341.02"/><rect class="cls-1" x="725.82" y="286.55" width="253" height="89" rx="11" ry="11"/><path d="M992.82,304.55a10,10,0,0,1,10,10v67a10,10,0,0,1-10,10h-231a10,10,0,0,1-10-10v-67a10,10,0,0,1,10-10h231m0-2h-231a12,12,0,0,0-12,12v67a12,12,0,0,0,12,12h231a12,12,0,0,0,12-12v-67a12,12,0,0,0-12-12Z" transform="translate(-25 -17)"/><text class="cls-2" transform="translate(778.27 323.05)">Run PCRs on<tspan x="-9.31" y="28.8">thermocycler(s)</tspan></text><line class="cls-4" x1="979.82" y1="331.05" x2="1045.46" y2="331.05"/><polygon points="1042.55 341.02 1059.82 331.05 1042.55 321.08 1042.55 341.02"/><rect class="cls-1" x="1060.82" y="286.55" width="253" height="89" rx="11" ry="11"/><path d="M1327.82,304.55a10,10,0,0,1,10,10v67a10,10,0,0,1-10,10h-231a10,10,0,0,1-10-10v-67a10,10,0,0,1,10-10h231m0-2h-231a12,12,0,0,0-12,12v67a12,12,0,0,0,12,12h231a12,12,0,0,0,12-12v-67a12,12,0,0,0-12-12Z" transform="translate(-25 -17)"/><text class="cls-2" transform="translate(1095.94 323.05)">Perform 384-well<tspan x="13.99" y="28.8">PCR cleanups</tspan></text><line class="cls-4" x1="1314.82" y1="331.05" x2="1380.46" y2="331.05"/><polygon points="1377.55 341.02 1394.82 331.05 1377.55 321.08 1377.55 341.02"/><rect class="cls-1" x="1395.82" y="286.55" width="253" height="89" rx="11" ry="11"/><path d="M1662.82,304.55a10,10,0,0,1,10,10v67a10,10,0,0,1-10,10h-231a10,10,0,0,1-10-10v-67a10,10,0,0,1,10-10h231m0-2h-231a12,12,0,0,0-12,12v67a12,12,0,0,0,12,12h231a12,12,0,0,0,12-12v-67a12,12,0,0,0-12-12Z" transform="translate(-25 -17)"/><text class="cls-2" transform="translate(1426.24 323.05)">Pool samples and<tspan x="-1.32" y="28.8">library preparation</tspan></text><rect class="cls-1" x="390.82" y="413.67" width="253" height="89" rx="11" ry="11"/><path d="M657.82,431.67a10,10,0,0,1,10,10v67a10,10,0,0,1-10,10h-231a10,10,0,0,1-10-10v-67a10,10,0,0,1,10-10h231m0-2h-231a12,12,0,0,0-12,12v67a12,12,0,0,0,12,12h231a12,12,0,0,0,12-12v-67a12,12,0,0,0-12-12Z" transform="translate(-25 -17)"/><text class="cls-2" transform="translate(445.9 450.17)">Sequence on<tspan x="-18.63" y="28.8">Illumina Platform</tspan></text><line class="cls-4" x1="644.82" y1="458.17" x2="710.46" y2="458.17"/><polygon points="707.55 468.14 724.82 458.17 707.55 448.2 707.55 468.14"/><rect class="cls-1" x="725.82" y="413.67" width="253" height="89" rx="11" ry="11"/><path d="M992.82,431.67a10,10,0,0,1,10,10v67a10,10,0,0,1-10,10h-231a10,10,0,0,1-10-10v-67a10,10,0,0,1,10-10h231m0-2h-231a12,12,0,0,0-12,12v67a12,12,0,0,0,12,12h231a12,12,0,0,0,12-12v-67a12,12,0,0,0-12-12Z" transform="translate(-25 -17)"/><text class="cls-2" transform="translate(780.26 450.17)">Analyze Data<tspan x="2.68" y="28.8">(demultiplex)</tspan></text><line class="cls-4" x1="979.82" y1="458.17" x2="1045.46" y2="458.17"/><polygon points="1042.55 468.14 1059.82 458.17 1042.55 448.2 1042.55 468.14"/><rect class="cls-1" x="1060.82" y="413.67" width="253" height="89" rx="11" ry="11"/><path d="M1327.82,431.67a10,10,0,0,1,10,10v67a10,10,0,0,1-10,10h-231a10,10,0,0,1-10-10v-67a10,10,0,0,1,10-10h231m0-2h-231a12,12,0,0,0-12,12v67a12,12,0,0,0,12,12h231a12,12,0,0,0,12-12v-67a12,12,0,0,0-12-12Z" transform="translate(-25 -17)"/><text class="cls-2" transform="translate(1150.61 450.17)">Report<tspan x="-4" y="28.8">Results</tspan></text><line class="cls-4" x1="1705.29" y1="346.85" x2="1735.82" y2="316.32"/><line class="cls-4" x1="1693.28" y1="345.78" x2="1723.81" y2="315.25"/><line class="cls-4" x1="1708.55" y1="330.52" x2="1650.31" y2="330.47"/><line class="cls-4" x1="334.84" y1="442.37" x2="304.31" y2="472.9"/><line class="cls-4" x1="346.84" y1="443.44" x2="316.31" y2="473.97"/><line class="cls-4" x1="331.58" y1="458.71" x2="375.46" y2="458.74"/><polygon points="372.54 468.71 389.82 458.75 372.55 448.76 372.54 468.71"/><text class="cls-7" transform="translate(0 29.18)">a</text><text class="cls-7" transform="translate(54.27 58.18)"><tspan class="cls-5">W</tspan><tspan x="31.48" y="0">orkflow for existing CDC test (</tspan><tspan class="cls-5" x="481.15" y="0">R</tspan><tspan class="cls-3" x="505.09" y="0">T</tspan><tspan x="523.98" y="0">-PCR)</tspan></text><text class="cls-7" transform="translate(54.27 261.18)"><tspan class="cls-5">W</tspan><tspan x="31.48" y="0">orkflow for proposed multiplex assay (Sequencing-based)</tspan></text><text class="cls-7" transform="translate(0 229.18)">b</text></svg>